<svg width="16" height="12" viewBox="0 0 16 12" fill="none" xmlns="http://www.w3.org/2000/svg">
<path d="M3.85 4.99999L15 4.99999C15.2833 4.99999 15.5208 5.09582 15.7125 5.28749C15.9042 5.47915 16 5.71665 16 5.99999C16 6.28332 15.9042 6.52082 15.7125 6.71249C15.5208 6.90415 15.2833 6.99999 15 6.99999L3.85 6.99999L6.7 9.84999C6.9 10.05 6.99583 10.2833 6.9875 10.55C6.97917 10.8167 6.88333 11.05 6.7 11.25C6.5 11.45 6.2625 11.5542 5.9875 11.5625C5.7125 11.5708 5.475 11.475 5.275 11.275L0.7 6.69999C0.6 6.59999 0.529167 6.49165 0.487501 6.37499C0.445834 6.25832 0.425001 6.13332 0.425001 5.99999C0.425001 5.86665 0.445834 5.74165 0.487501 5.62499C0.529167 5.50832 0.6 5.39999 0.7 5.29999L5.275 0.724987C5.475 0.524987 5.7125 0.429154 5.9875 0.437488C6.2625 0.445821 6.5 0.549988 6.7 0.749988C6.88333 0.949988 6.97917 1.18332 6.9875 1.44999C6.99583 1.71665 6.9 1.94999 6.7 2.14999L3.85 4.99999Z" fill="#EAEAEA"/>
</svg>
