<svg width="34" height="28" viewBox="0 0 34 28" fill="none" xmlns="http://www.w3.org/2000/svg">
<path d="M33.0328 4.13555L33.0429 23.0196C33.0429 25.2475 31.3136 27.0723 29.2123 27.0723L4.49968 27.0935C2.3783 27.0935 0.649014 25.2687 0.649014 23.0515L0.628906 4.16738C0.628906 1.92887 2.35819 0.114724 4.46952 0.114724L29.1922 0.0935059C31.3036 0.0935059 33.0328 1.89704 33.0328 4.13555Z" fill="#F6C859"/>
<path d="M13.1257 23.4863C12.9849 23.4863 12.8542 23.4121 12.7939 23.2742C12.7034 23.0832 12.7738 22.8392 12.9548 22.7437C13.4977 22.4467 14.2316 21.895 14.6639 20.9508C15.2069 19.7414 15.0661 18.4258 14.8349 18.3091C14.7745 18.2773 14.5533 18.4046 14.4126 18.4789C14.0607 18.6698 13.5681 18.9351 13.005 18.7229C12.4521 18.5213 12.1806 18.0015 12.0499 17.7469C11.1953 16.1025 10.9339 11.8376 11.8287 9.71581C12.1303 9.01562 12.5325 8.59125 13.0352 8.46395C13.548 8.33664 13.9702 8.55943 14.302 8.75039C14.5735 8.89892 14.7142 8.96257 14.8047 8.90953C15.1566 8.68674 15.1465 7.32878 14.6539 6.25727C14.2216 5.30245 13.4876 4.75078 12.9447 4.46434C12.7637 4.36886 12.6833 4.12485 12.7839 3.93389C12.8743 3.74292 13.1056 3.65805 13.2866 3.76414C13.93 4.11424 14.8148 4.772 15.3275 5.92839C15.8403 7.06355 16.0816 9.02622 15.1867 9.59911C14.7343 9.88556 14.302 9.65216 13.9602 9.4718C13.6988 9.33389 13.4474 9.19597 13.2061 9.25962C12.8743 9.3445 12.6532 9.73703 12.5124 10.0553C11.7282 11.9119 11.9594 15.9433 12.7034 17.3861C12.8341 17.6302 12.9849 17.8954 13.2463 17.9909C13.4977 18.0863 13.739 17.9696 14.0708 17.7893C14.4025 17.6089 14.7645 17.418 15.1566 17.6089C16.0011 18.0439 15.9408 19.9429 15.3376 21.3009C14.8148 22.4573 13.9401 23.115 13.2966 23.4651C13.2363 23.4757 13.176 23.4863 13.1257 23.4863Z" fill="#7D662D"/>
<path d="M11.9895 10.4267H5.24333C5.0322 10.4267 4.87134 10.2463 4.87134 10.0342C4.87134 9.82199 5.0322 9.64163 5.23328 9.64163H11.9795C12.1906 9.64163 12.3515 9.82199 12.3515 10.0342C12.3615 10.2463 12.2007 10.4267 11.9895 10.4267Z" fill="#7D662D"/>
<path d="M11.9895 17.556H5.24333C5.0322 17.556 4.87134 17.3756 4.87134 17.1634C4.87134 16.9406 5.04226 16.7709 5.24333 16.7709H11.9895C12.2007 16.7709 12.3615 16.9513 12.3615 17.1634C12.3716 17.3756 12.2007 17.556 11.9895 17.556Z" fill="#7D662D"/>
<path d="M20.9977 23.4759C20.9373 23.4759 20.877 23.4653 20.8267 23.4334C20.1833 23.0833 19.2985 22.4256 18.7858 21.2692C18.1725 19.9112 18.1222 18.0122 18.9567 17.5772C19.3488 17.3757 19.7208 17.5772 20.0425 17.747C20.3844 17.9273 20.6257 18.044 20.867 17.9486C21.1485 17.8425 21.3093 17.5348 21.4099 17.3438C22.1539 15.901 22.3751 11.859 21.5908 10.013C21.4501 9.69472 21.2289 9.29158 20.8971 9.21731C20.696 9.16427 20.5653 8.95209 20.6156 8.73991C20.6659 8.52773 20.867 8.40042 21.068 8.44285C21.5707 8.57016 21.9729 8.98391 22.2745 9.68411C23.1794 11.8059 22.918 16.0814 22.0634 17.7152C21.9327 17.9698 21.6612 18.4896 21.1083 18.6912C20.5452 18.9034 20.0526 18.6381 19.7007 18.4472C19.5599 18.3729 19.3388 18.2562 19.2784 18.2774C19.0573 18.3941 18.9064 19.7097 19.4594 20.9191C19.8917 21.8739 20.6257 22.4256 21.1686 22.712C21.3496 22.8075 21.43 23.0515 21.3294 23.2425C21.2691 23.4016 21.1384 23.4759 20.9977 23.4759Z" fill="#7D662D"/>
<path d="M19.4897 8.83536C19.3289 8.83536 19.1881 8.72927 19.1379 8.57014C18.3335 6.02397 20.2136 4.0613 20.8169 3.74302C20.9978 3.63693 21.2291 3.72181 21.3196 3.91277C21.4101 4.10373 21.3397 4.34774 21.1587 4.44322C20.8872 4.59175 19.158 6.15128 19.8416 8.31552C19.912 8.5277 19.8014 8.75049 19.6003 8.81414C19.5702 8.83536 19.53 8.83536 19.4897 8.83536Z" fill="#7D662D"/>
<path d="M28.8699 10.4162H22.1237C21.9126 10.4162 21.7517 10.2358 21.7517 10.0236C21.7517 9.81146 21.9226 9.6311 22.1237 9.6311H28.8699C29.081 9.6311 29.2419 9.81146 29.2419 10.0236C29.2419 10.2358 29.071 10.4162 28.8699 10.4162Z" fill="#7D662D"/>
<path d="M28.8699 17.5348H22.1237C21.9126 17.5348 21.7517 17.3544 21.7517 17.1422C21.7517 16.9194 21.9226 16.7497 22.1237 16.7497H28.8699C29.081 16.7497 29.2419 16.93 29.2419 17.1422C29.2419 17.365 29.081 17.5348 28.8699 17.5348Z" fill="#7D662D"/>
</svg>
