<svg width="19" height="19" viewBox="0 0 19 19" fill="none" xmlns="http://www.w3.org/2000/svg">
<mask id="mask0_55_872" style="mask-type:luminance" maskUnits="userSpaceOnUse" x="0" y="0" width="19" height="19">
<path d="M18.1739 9.08698C18.1739 4.06839 14.1055 0 9.08694 0C4.06836 0 0 4.06839 0 9.08698V9.91302C0 14.9316 4.06836 19 9.08694 19C14.1055 19 18.1739 14.9316 18.1739 9.91302V9.08698Z" fill="white"/>
</mask>
<g mask="url(#mask0_55_872)">
<path d="M18.174 9.71002C18.174 8.93202 18.112 8.36299 17.978 7.77399H9.27197V11.289H14.383C14.28 12.163 13.723 13.479 12.487 14.363L12.47 14.48L15.222 16.659L15.413 16.678C17.164 15.026 18.174 12.594 18.174 9.71002Z" fill="#4285F4"/>
<path d="M9.27177 18.973C11.7758 18.973 13.8778 18.131 15.4128 16.678L12.4868 14.363C11.7038 14.921 10.6528 15.31 9.27177 15.31C6.81977 15.31 4.73877 13.658 3.99677 11.374L3.88878 11.383L1.02577 13.646L0.98877 13.752C2.51377 16.847 5.64577 18.973 9.27177 18.973Z" fill="#34A853"/>
<path d="M3.99699 11.374C3.80199 10.784 3.688 10.153 3.688 9.5C3.688 8.847 3.802 8.21598 3.987 7.62598L3.98199 7.50098L1.084 5.20203L0.988998 5.24799C0.360998 6.53199 0 7.974 0 9.5C0 11.026 0.360998 12.468 0.988998 13.752L3.99699 11.374Z" fill="#FBBC05"/>
<path d="M9.27177 3.69C11.0138 3.69 12.1878 4.45798 12.8578 5.09998L15.4748 2.48999C13.8668 0.96399 11.7758 0.0269775 9.27177 0.0269775C5.64577 0.0269775 2.51377 2.15299 0.98877 5.24799L3.98677 7.62598C4.73877 5.34198 6.81977 3.69 9.27177 3.69Z" fill="#EB4335"/>
</g>
</svg>
