<svg width="15" height="18" viewBox="0 0 15 18" fill="none" xmlns="http://www.w3.org/2000/svg">
<path d="M7.00004 17.3333C6.54171 17.3333 6.14935 17.1701 5.82296 16.8437C5.49657 16.5174 5.33337 16.125 5.33337 15.6667H8.66671C8.66671 16.125 8.50351 16.5174 8.17712 16.8437C7.85074 17.1701 7.45837 17.3333 7.00004 17.3333ZM1.16671 14.8333C0.930596 14.8333 0.73268 14.7535 0.572957 14.5937C0.413235 14.434 0.333374 14.2361 0.333374 14C0.333374 13.7639 0.413235 13.566 0.572957 13.4062C0.73268 13.2465 0.930596 13.1667 1.16671 13.1667H2.00004V7.33332C2.00004 6.18055 2.34726 5.15624 3.04171 4.26041C3.73615 3.36457 4.63893 2.77777 5.75004 2.49999V1.91666C5.75004 1.56943 5.87157 1.2743 6.11462 1.03124C6.35768 0.788184 6.65282 0.666656 7.00004 0.666656C7.34726 0.666656 7.6424 0.788184 7.88546 1.03124C8.12851 1.2743 8.25004 1.56943 8.25004 1.91666V2.18749C8.11115 2.46527 8.00699 2.75693 7.93754 3.06249C7.8681 3.36805 7.83337 3.68055 7.83337 3.99999C7.83337 5.15277 8.23962 6.13541 9.05212 6.94791C9.86462 7.76041 10.8473 8.16666 12 8.16666V13.1667H12.8334C13.0695 13.1667 13.2674 13.2465 13.4271 13.4062C13.5868 13.566 13.6667 13.7639 13.6667 14C13.6667 14.2361 13.5868 14.434 13.4271 14.5937C13.2674 14.7535 13.0695 14.8333 12.8334 14.8333H1.16671ZM12 6.49999C11.3056 6.49999 10.7153 6.25693 10.2292 5.77082C9.7431 5.28471 9.50004 4.69443 9.50004 3.99999C9.50004 3.30555 9.7431 2.71527 10.2292 2.22916C10.7153 1.74305 11.3056 1.49999 12 1.49999C12.6945 1.49999 13.2848 1.74305 13.7709 2.22916C14.257 2.71527 14.5 3.30555 14.5 3.99999C14.5 4.69443 14.257 5.28471 13.7709 5.77082C13.2848 6.25693 12.6945 6.49999 12 6.49999Z" fill="#EAEAEA" fill-opacity="0.8"/>
</svg>
