<svg width="53" height="18" viewBox="0 0 53 18" fill="none" xmlns="http://www.w3.org/2000/svg">
<path d="M49.1566 0.957199H45.9227C44.9115 0.957199 44.1506 1.25308 43.7201 2.29924L37.5127 17.1885H41.9179C41.9179 17.1885 42.6488 15.1913 42.799 14.7686H48.1654C48.2956 15.3287 48.676 17.1885 48.676 17.1885H52.5706L49.1566 0.957199ZM44.0004 11.4399C44.3408 10.51 45.6424 6.88543 45.6424 6.88543C45.6424 6.88543 46.0028 5.93438 46.2131 5.35318L46.4934 6.74806C46.4934 6.74806 47.3044 10.6157 47.4646 11.4399H44.0004Z" fill="white"/>
<path d="M31.9257 5.46946C31.9156 6.21974 32.8267 6.72697 34.2885 7.47724C36.7013 8.63964 37.8227 10.0345 37.7927 11.8944C37.7726 15.2653 34.9092 17.4422 30.514 17.4422C28.6317 17.421 26.8296 17.0195 25.8484 16.5757L26.4391 12.9405L26.9697 13.1941C28.3414 13.7965 29.2424 14.0501 30.9144 14.0501C32.1159 14.0501 33.4074 13.5534 33.4275 12.465C33.4375 11.7464 32.8768 11.2392 31.2548 10.4466C29.6529 9.67523 27.5504 8.37546 27.5805 6.05066C27.6005 2.90162 30.524 0.682495 34.6589 0.682495C36.2808 0.682495 37.5924 1.04178 38.4134 1.36937L37.8427 4.8777L37.4623 4.69805C36.6813 4.37047 35.6901 4.06402 34.3185 4.07459C32.6865 4.06402 31.9257 4.79316 31.9257 5.46946Z" fill="white"/>
<path d="M25.8284 0.967728L23.2153 17.1885H19.0303L19.5409 14.0394L20.3719 8.86147L21.6334 0.978295L25.8284 0.967728Z" fill="white"/>
<path d="M10.7905 9.32652C9.3888 5.57514 6.0448 2.45779 0.98877 1.16859L1.03883 0.841003H7.53659C8.41764 0.883272 9.12849 1.16859 9.36878 2.16191L10.7905 9.32652Z" fill="white"/>
<path d="M19.9414 0.988983L13.3436 17.178H8.91829L5.16382 3.65193C7.85703 5.48007 10.1498 8.3755 10.9607 10.3833L11.4013 12.0635L15.5061 0.988983H19.9414Z" fill="white"/>
</svg>
